<mxfile host="Electron" modified="2023-08-01T05:15:25.827Z" agent="Mozilla/5.0 (Windows NT 10.0; Win64; x64) AppleWebKit/537.36 (KHTML, like Gecko) draw.io/21.6.5 Chrome/114.0.5735.243 Electron/25.3.1 Safari/537.36" etag="cD8ict_6Ebo7tAgIWjYr" version="21.6.5" type="device">
  <diagram name="Page-1" id="at8uDB8IXHVJr2ERRcrJ">
    <mxGraphModel dx="880" dy="511" grid="1" gridSize="10" guides="1" tooltips="1" connect="1" arrows="1" fold="1" page="1" pageScale="1" pageWidth="1169" pageHeight="827" math="0" shadow="0">
      <root>
        <mxCell id="0" />
        <mxCell id="1" parent="0" />
        <mxCell id="7naRMV1mrl6FbYIXKbW3-3" value="ResourceAllocation" style="shape=folder;fontStyle=1;tabWidth=150;tabHeight=30;tabPosition=left;html=1;boundedLbl=1;labelInHeader=1;container=1;collapsible=0;whiteSpace=wrap;labelBackgroundColor=none;" vertex="1" parent="1">
          <mxGeometry x="10" y="150" width="710" height="350" as="geometry" />
        </mxCell>
        <mxCell id="7naRMV1mrl6FbYIXKbW3-4" value="" style="html=1;strokeColor=none;resizeWidth=1;resizeHeight=1;fillColor=none;part=1;connectable=0;allowArrows=0;deletable=0;whiteSpace=wrap;labelBackgroundColor=none;" vertex="1" parent="7naRMV1mrl6FbYIXKbW3-3">
          <mxGeometry width="710" height="245" relative="1" as="geometry">
            <mxPoint y="30" as="offset" />
          </mxGeometry>
        </mxCell>
        <mxCell id="7naRMV1mrl6FbYIXKbW3-20" style="edgeStyle=orthogonalEdgeStyle;rounded=0;orthogonalLoop=1;jettySize=auto;html=1;entryX=1;entryY=0.5;entryDx=0;entryDy=0;exitX=0.5;exitY=1;exitDx=0;exitDy=0;labelBackgroundColor=none;fontColor=default;" edge="1" parent="7naRMV1mrl6FbYIXKbW3-3" source="7naRMV1mrl6FbYIXKbW3-10" target="7naRMV1mrl6FbYIXKbW3-9">
          <mxGeometry relative="1" as="geometry" />
        </mxCell>
        <mxCell id="7naRMV1mrl6FbYIXKbW3-36" value="*" style="edgeLabel;html=1;align=center;verticalAlign=middle;resizable=0;points=[];labelBackgroundColor=none;" vertex="1" connectable="0" parent="7naRMV1mrl6FbYIXKbW3-20">
          <mxGeometry x="0.33" y="3" relative="1" as="geometry">
            <mxPoint x="-75" y="7" as="offset" />
          </mxGeometry>
        </mxCell>
        <mxCell id="7naRMV1mrl6FbYIXKbW3-21" style="edgeStyle=orthogonalEdgeStyle;rounded=0;orthogonalLoop=1;jettySize=auto;html=1;entryX=1;entryY=0.5;entryDx=0;entryDy=0;exitX=0.5;exitY=0;exitDx=0;exitDy=0;labelBackgroundColor=none;fontColor=default;" edge="1" parent="7naRMV1mrl6FbYIXKbW3-3" source="7naRMV1mrl6FbYIXKbW3-10" target="7naRMV1mrl6FbYIXKbW3-11">
          <mxGeometry relative="1" as="geometry" />
        </mxCell>
        <mxCell id="7naRMV1mrl6FbYIXKbW3-37" value="allocation&lt;br&gt;$a&amp;lt;Resource&amp;gt;Allocation$" style="edgeLabel;html=1;align=center;verticalAlign=middle;resizable=0;points=[];labelBackgroundColor=none;" vertex="1" connectable="0" parent="7naRMV1mrl6FbYIXKbW3-21">
          <mxGeometry x="0.3867" y="-1" relative="1" as="geometry">
            <mxPoint x="6" y="-18" as="offset" />
          </mxGeometry>
        </mxCell>
        <mxCell id="7naRMV1mrl6FbYIXKbW3-38" value="*" style="edgeLabel;html=1;align=center;verticalAlign=middle;resizable=0;points=[];labelBackgroundColor=none;" vertex="1" connectable="0" parent="7naRMV1mrl6FbYIXKbW3-21">
          <mxGeometry x="0.4533" relative="1" as="geometry">
            <mxPoint x="-46" y="11" as="offset" />
          </mxGeometry>
        </mxCell>
        <mxCell id="7naRMV1mrl6FbYIXKbW3-23" style="edgeStyle=orthogonalEdgeStyle;rounded=0;orthogonalLoop=1;jettySize=auto;html=1;exitX=0.75;exitY=0;exitDx=0;exitDy=0;entryX=0.5;entryY=0;entryDx=0;entryDy=0;labelBackgroundColor=none;fontColor=default;" edge="1" parent="7naRMV1mrl6FbYIXKbW3-3" source="7naRMV1mrl6FbYIXKbW3-10" target="7naRMV1mrl6FbYIXKbW3-7">
          <mxGeometry relative="1" as="geometry">
            <Array as="points">
              <mxPoint x="660" y="70" />
              <mxPoint x="90" y="70" />
            </Array>
          </mxGeometry>
        </mxCell>
        <mxCell id="7naRMV1mrl6FbYIXKbW3-39" value="$a&amp;lt;Resource&amp;gt;$" style="edgeLabel;html=1;align=center;verticalAlign=middle;resizable=0;points=[];labelBackgroundColor=none;" vertex="1" connectable="0" parent="7naRMV1mrl6FbYIXKbW3-23">
          <mxGeometry x="0.8486" y="1" relative="1" as="geometry">
            <mxPoint x="5" y="-12" as="offset" />
          </mxGeometry>
        </mxCell>
        <mxCell id="7naRMV1mrl6FbYIXKbW3-40" value="*" style="edgeLabel;html=1;align=center;verticalAlign=middle;resizable=0;points=[];labelBackgroundColor=none;" vertex="1" connectable="0" parent="7naRMV1mrl6FbYIXKbW3-23">
          <mxGeometry x="0.9543" y="2" relative="1" as="geometry">
            <mxPoint x="-10" y="3" as="offset" />
          </mxGeometry>
        </mxCell>
        <mxCell id="7naRMV1mrl6FbYIXKbW3-41" value="$a&amp;lt;ResourceKind&amp;gt;$" style="edgeLabel;html=1;align=center;verticalAlign=middle;resizable=0;points=[];labelBackgroundColor=none;" vertex="1" connectable="0" parent="7naRMV1mrl6FbYIXKbW3-23">
          <mxGeometry x="0.8486" y="1" relative="1" as="geometry">
            <mxPoint x="24" y="248" as="offset" />
          </mxGeometry>
        </mxCell>
        <mxCell id="7naRMV1mrl6FbYIXKbW3-24" style="edgeStyle=orthogonalEdgeStyle;rounded=0;orthogonalLoop=1;jettySize=auto;html=1;exitX=0.75;exitY=1;exitDx=0;exitDy=0;entryX=0.5;entryY=1;entryDx=0;entryDy=0;labelBackgroundColor=none;fontColor=default;" edge="1" parent="7naRMV1mrl6FbYIXKbW3-3" source="7naRMV1mrl6FbYIXKbW3-10" target="7naRMV1mrl6FbYIXKbW3-6">
          <mxGeometry relative="1" as="geometry">
            <Array as="points">
              <mxPoint x="660" y="330" />
              <mxPoint x="90" y="330" />
            </Array>
          </mxGeometry>
        </mxCell>
        <mxCell id="7naRMV1mrl6FbYIXKbW3-42" value="*" style="edgeLabel;html=1;align=center;verticalAlign=middle;resizable=0;points=[];labelBackgroundColor=none;" vertex="1" connectable="0" parent="7naRMV1mrl6FbYIXKbW3-24">
          <mxGeometry x="0.9437" y="1" relative="1" as="geometry">
            <mxPoint x="-12" y="-1" as="offset" />
          </mxGeometry>
        </mxCell>
        <mxCell id="7naRMV1mrl6FbYIXKbW3-10" value="System" style="fontStyle=0;html=1;whiteSpace=wrap;labelBackgroundColor=none;" vertex="1" parent="7naRMV1mrl6FbYIXKbW3-3">
          <mxGeometry x="570" y="180" width="120" height="40" as="geometry" />
        </mxCell>
        <mxCell id="7naRMV1mrl6FbYIXKbW3-18" style="edgeStyle=orthogonalEdgeStyle;rounded=0;orthogonalLoop=1;jettySize=auto;html=1;exitX=0;exitY=0.5;exitDx=0;exitDy=0;labelBackgroundColor=none;fontColor=default;" edge="1" parent="7naRMV1mrl6FbYIXKbW3-3" source="7naRMV1mrl6FbYIXKbW3-9" target="7naRMV1mrl6FbYIXKbW3-6">
          <mxGeometry relative="1" as="geometry" />
        </mxCell>
        <mxCell id="7naRMV1mrl6FbYIXKbW3-19" style="edgeStyle=orthogonalEdgeStyle;rounded=0;orthogonalLoop=1;jettySize=auto;html=1;exitX=0.5;exitY=0;exitDx=0;exitDy=0;entryX=1;entryY=0.5;entryDx=0;entryDy=0;labelBackgroundColor=none;fontColor=default;" edge="1" parent="7naRMV1mrl6FbYIXKbW3-3" source="7naRMV1mrl6FbYIXKbW3-9" target="7naRMV1mrl6FbYIXKbW3-8">
          <mxGeometry relative="1" as="geometry">
            <Array as="points">
              <mxPoint x="370" y="200" />
            </Array>
          </mxGeometry>
        </mxCell>
        <mxCell id="7naRMV1mrl6FbYIXKbW3-31" value="timeSlot" style="edgeLabel;html=1;align=center;verticalAlign=middle;resizable=0;points=[];labelBackgroundColor=none;" vertex="1" connectable="0" parent="7naRMV1mrl6FbYIXKbW3-19">
          <mxGeometry x="0.6" relative="1" as="geometry">
            <mxPoint x="-1" y="-13" as="offset" />
          </mxGeometry>
        </mxCell>
        <mxCell id="7naRMV1mrl6FbYIXKbW3-32" value="1" style="edgeLabel;html=1;align=center;verticalAlign=middle;resizable=0;points=[];labelBackgroundColor=none;" vertex="1" connectable="0" parent="7naRMV1mrl6FbYIXKbW3-19">
          <mxGeometry x="0.5143" y="-1" relative="1" as="geometry">
            <mxPoint x="-22" y="11" as="offset" />
          </mxGeometry>
        </mxCell>
        <mxCell id="7naRMV1mrl6FbYIXKbW3-9" value="Request" style="fontStyle=0;html=1;whiteSpace=wrap;labelBackgroundColor=none;" vertex="1" parent="7naRMV1mrl6FbYIXKbW3-3">
          <mxGeometry x="310" y="260" width="120" height="40" as="geometry" />
        </mxCell>
        <mxCell id="7naRMV1mrl6FbYIXKbW3-8" value="TimeSlot" style="fontStyle=0;html=1;whiteSpace=wrap;labelBackgroundColor=none;" vertex="1" parent="7naRMV1mrl6FbYIXKbW3-3">
          <mxGeometry x="170" y="180" width="120" height="40" as="geometry" />
        </mxCell>
        <mxCell id="7naRMV1mrl6FbYIXKbW3-7" value="$&amp;lt;Resource&amp;gt;" style="fontStyle=0;html=1;whiteSpace=wrap;labelBackgroundColor=none;" vertex="1" parent="7naRMV1mrl6FbYIXKbW3-3">
          <mxGeometry x="30" y="90" width="120" height="40" as="geometry" />
        </mxCell>
        <mxCell id="7naRMV1mrl6FbYIXKbW3-12" style="edgeStyle=orthogonalEdgeStyle;rounded=0;orthogonalLoop=1;jettySize=auto;html=1;exitX=0;exitY=0.5;exitDx=0;exitDy=0;entryX=1;entryY=0.5;entryDx=0;entryDy=0;labelBackgroundColor=none;fontColor=default;" edge="1" parent="7naRMV1mrl6FbYIXKbW3-3" source="7naRMV1mrl6FbYIXKbW3-11" target="7naRMV1mrl6FbYIXKbW3-7">
          <mxGeometry relative="1" as="geometry" />
        </mxCell>
        <mxCell id="7naRMV1mrl6FbYIXKbW3-29" value="resource" style="edgeLabel;html=1;align=center;verticalAlign=middle;resizable=0;points=[];labelBackgroundColor=none;" vertex="1" connectable="0" parent="7naRMV1mrl6FbYIXKbW3-12">
          <mxGeometry x="0.5125" y="-1" relative="1" as="geometry">
            <mxPoint x="-8" y="-10" as="offset" />
          </mxGeometry>
        </mxCell>
        <mxCell id="7naRMV1mrl6FbYIXKbW3-30" value="1" style="edgeLabel;html=1;align=center;verticalAlign=middle;resizable=0;points=[];labelBackgroundColor=none;" vertex="1" connectable="0" parent="7naRMV1mrl6FbYIXKbW3-12">
          <mxGeometry x="-0.0125" y="1" relative="1" as="geometry">
            <mxPoint x="-70" y="9" as="offset" />
          </mxGeometry>
        </mxCell>
        <mxCell id="7naRMV1mrl6FbYIXKbW3-22" style="edgeStyle=orthogonalEdgeStyle;rounded=0;orthogonalLoop=1;jettySize=auto;html=1;entryX=0.75;entryY=0;entryDx=0;entryDy=0;labelBackgroundColor=none;fontColor=default;" edge="1" parent="7naRMV1mrl6FbYIXKbW3-3" source="7naRMV1mrl6FbYIXKbW3-11" target="7naRMV1mrl6FbYIXKbW3-9">
          <mxGeometry relative="1" as="geometry" />
        </mxCell>
        <mxCell id="7naRMV1mrl6FbYIXKbW3-33" value="request&lt;br&gt;" style="edgeLabel;html=1;align=center;verticalAlign=middle;resizable=0;points=[];labelBackgroundColor=none;" vertex="1" connectable="0" parent="7naRMV1mrl6FbYIXKbW3-22">
          <mxGeometry x="0.5231" y="1" relative="1" as="geometry">
            <mxPoint x="22" y="14" as="offset" />
          </mxGeometry>
        </mxCell>
        <mxCell id="7naRMV1mrl6FbYIXKbW3-34" value="1" style="edgeLabel;html=1;align=center;verticalAlign=middle;resizable=0;points=[];labelBackgroundColor=none;" vertex="1" connectable="0" parent="7naRMV1mrl6FbYIXKbW3-22">
          <mxGeometry x="0.4615" y="1" relative="1" as="geometry">
            <mxPoint x="-11" y="19" as="offset" />
          </mxGeometry>
        </mxCell>
        <mxCell id="7naRMV1mrl6FbYIXKbW3-35" value="request&lt;br&gt;" style="edgeLabel;html=1;align=center;verticalAlign=middle;resizable=0;points=[];labelBackgroundColor=none;" vertex="1" connectable="0" parent="7naRMV1mrl6FbYIXKbW3-22">
          <mxGeometry x="0.5231" y="1" relative="1" as="geometry">
            <mxPoint x="57" y="38" as="offset" />
          </mxGeometry>
        </mxCell>
        <mxCell id="7naRMV1mrl6FbYIXKbW3-11" value="Allocation&lt;br&gt;$&amp;lt;Resource&amp;gt;Allocation$" style="fontStyle=0;html=1;whiteSpace=wrap;labelBackgroundColor=none;" vertex="1" parent="7naRMV1mrl6FbYIXKbW3-3">
          <mxGeometry x="310" y="90" width="180" height="40" as="geometry" />
        </mxCell>
        <mxCell id="7naRMV1mrl6FbYIXKbW3-13" style="edgeStyle=orthogonalEdgeStyle;rounded=0;orthogonalLoop=1;jettySize=auto;html=1;entryX=0.5;entryY=1;entryDx=0;entryDy=0;endArrow=none;endFill=0;labelBackgroundColor=none;fontColor=default;" edge="1" parent="7naRMV1mrl6FbYIXKbW3-3" source="7naRMV1mrl6FbYIXKbW3-6" target="7naRMV1mrl6FbYIXKbW3-7">
          <mxGeometry relative="1" as="geometry" />
        </mxCell>
        <mxCell id="7naRMV1mrl6FbYIXKbW3-25" value="resource" style="edgeLabel;html=1;align=center;verticalAlign=middle;resizable=0;points=[];labelBackgroundColor=none;" vertex="1" connectable="0" parent="7naRMV1mrl6FbYIXKbW3-13">
          <mxGeometry x="0.6" y="2" relative="1" as="geometry">
            <mxPoint x="-28" y="-19" as="offset" />
          </mxGeometry>
        </mxCell>
        <mxCell id="7naRMV1mrl6FbYIXKbW3-26" value="kind" style="edgeLabel;html=1;align=center;verticalAlign=middle;resizable=0;points=[];labelBackgroundColor=none;" vertex="1" connectable="0" parent="7naRMV1mrl6FbYIXKbW3-13">
          <mxGeometry x="-0.7385" y="1" relative="1" as="geometry">
            <mxPoint x="-23" y="6" as="offset" />
          </mxGeometry>
        </mxCell>
        <mxCell id="7naRMV1mrl6FbYIXKbW3-27" value="1" style="edgeLabel;html=1;align=center;verticalAlign=middle;resizable=0;points=[];labelBackgroundColor=none;" vertex="1" connectable="0" parent="7naRMV1mrl6FbYIXKbW3-13">
          <mxGeometry x="-0.7538" y="-1" relative="1" as="geometry">
            <mxPoint x="10" y="4" as="offset" />
          </mxGeometry>
        </mxCell>
        <mxCell id="7naRMV1mrl6FbYIXKbW3-28" value="*" style="edgeLabel;html=1;align=center;verticalAlign=middle;resizable=0;points=[];labelBackgroundColor=none;" vertex="1" connectable="0" parent="7naRMV1mrl6FbYIXKbW3-13">
          <mxGeometry x="0.7231" y="2" relative="1" as="geometry">
            <mxPoint x="12" y="-9" as="offset" />
          </mxGeometry>
        </mxCell>
        <mxCell id="7naRMV1mrl6FbYIXKbW3-6" value="$&amp;lt;ResoourceKind&amp;gt;$" style="fontStyle=0;html=1;whiteSpace=wrap;labelBackgroundColor=none;" vertex="1" parent="7naRMV1mrl6FbYIXKbW3-3">
          <mxGeometry x="30" y="260" width="120" height="40" as="geometry" />
        </mxCell>
        <mxCell id="7naRMV1mrl6FbYIXKbW3-5" value="Resource: StringExpression,&lt;br&gt;ResourceKind: StringExpression,&lt;br&gt;System" style="shape=partialRectangle;html=1;top=1;align=left;dashed=1;labelBackgroundColor=none;" vertex="1" parent="7naRMV1mrl6FbYIXKbW3-3">
          <mxGeometry x="610" y="10" width="200" height="50" as="geometry" />
        </mxCell>
        <mxCell id="7naRMV1mrl6FbYIXKbW3-43" value="TrainingAdmin" style="shape=folder;fontStyle=1;tabWidth=40;tabHeight=10;tabPosition=left;html=1;boundedLbl=1;whiteSpace=wrap;labelBackgroundColor=none;" vertex="1" parent="1">
          <mxGeometry x="320" y="590" width="110" height="70" as="geometry" />
        </mxCell>
        <mxCell id="7naRMV1mrl6FbYIXKbW3-44" value="«bind»" style="endArrow=open;html=1;rounded=0;align=center;verticalAlign=bottom;dashed=1;endFill=0;labelBackgroundColor=none;exitX=0.5;exitY=0.129;exitDx=0;exitDy=0;exitPerimeter=0;entryX=0.25;entryY=1;entryDx=0;entryDy=0;entryPerimeter=0;fontColor=default;" edge="1" parent="1" source="7naRMV1mrl6FbYIXKbW3-43" target="7naRMV1mrl6FbYIXKbW3-3">
          <mxGeometry x="1" y="83" relative="1" as="geometry">
            <mxPoint x="350" y="540" as="sourcePoint" />
            <mxPoint x="510" y="540" as="targetPoint" />
            <mxPoint x="-19" y="-13" as="offset" />
          </mxGeometry>
        </mxCell>
        <mxCell id="7naRMV1mrl6FbYIXKbW3-45" value="Resource -&amp;gt; &quot;Instructor&quot;&lt;br&gt;ResourceKind -&amp;gt; &quot;Qualification&quot;,&lt;br&gt;System -&amp;gt; TrainingAdminSystem" style="resizable=0;html=1;align=left;verticalAlign=top;labelBackgroundColor=none;" connectable="0" vertex="1" parent="7naRMV1mrl6FbYIXKbW3-44">
          <mxGeometry relative="1" as="geometry">
            <mxPoint x="-166" y="1" as="offset" />
          </mxGeometry>
        </mxCell>
        <mxCell id="7naRMV1mrl6FbYIXKbW3-46" value="«bind»" style="endArrow=open;html=1;rounded=0;align=center;verticalAlign=bottom;dashed=1;endFill=0;labelBackgroundColor=none;exitX=0.518;exitY=0.114;exitDx=0;exitDy=0;exitPerimeter=0;entryX=0.75;entryY=1;entryDx=0;entryDy=0;entryPerimeter=0;fontColor=default;" edge="1" parent="1" source="7naRMV1mrl6FbYIXKbW3-43" target="7naRMV1mrl6FbYIXKbW3-3">
          <mxGeometry x="0.123" y="-20" relative="1" as="geometry">
            <mxPoint x="680" y="620" as="sourcePoint" />
            <mxPoint x="548" y="510" as="targetPoint" />
            <mxPoint as="offset" />
          </mxGeometry>
        </mxCell>
        <mxCell id="7naRMV1mrl6FbYIXKbW3-47" value="Resource -&amp;gt; &quot;Facility&quot;&lt;br&gt;ResourceKind -&amp;gt; &quot;FacilitySpecification&quot;,&lt;br&gt;System -&amp;gt; TrainingAdminSystem" style="resizable=0;html=1;align=left;verticalAlign=top;labelBackgroundColor=none;" connectable="0" vertex="1" parent="7naRMV1mrl6FbYIXKbW3-46">
          <mxGeometry relative="1" as="geometry">
            <mxPoint x="1" y="2" as="offset" />
          </mxGeometry>
        </mxCell>
      </root>
    </mxGraphModel>
  </diagram>
</mxfile>
